<svg width="24" height="32" viewBox="0 0 24 32" fill="none" xmlns="http://www.w3.org/2000/svg">
<path d="M12.468 21.3375C12.468 21.0786 12.2582 20.8688 11.9993 20.8688C11.7403 20.8688 11.5305 21.0786 11.5305 21.3375V21.6188C11.5305 21.8776 11.7403 22.0875 11.9993 22.0875C12.2582 22.0875 12.468 21.8776 12.468 21.6188V21.3375Z" fill="black"/>
<path d="M12.468 23.9626C12.468 23.7037 12.2582 23.4938 11.9993 23.4938C11.7403 23.4938 11.5305 23.7037 11.5305 23.9626V24.2438C11.5305 24.5027 11.7403 24.7126 11.9993 24.7126C12.2582 24.7126 12.468 24.5027 12.468 24.2438V23.9626Z" fill="black"/>
<path d="M12.468 26.5876C12.468 26.3287 12.2582 26.1188 11.9993 26.1188C11.7403 26.1188 11.5305 26.3287 11.5305 26.5876V26.8688C11.5305 27.1277 11.7403 27.3376 11.9993 27.3376C12.2582 27.3376 12.468 27.1277 12.468 26.8688V26.5876Z" fill="black"/>
<path d="M11.9993 28.7438C11.7403 28.7438 11.5305 28.9537 11.5305 29.2126V29.4938C11.5305 29.7527 11.7403 29.9626 11.9993 29.9626C12.2582 29.9626 12.468 29.7527 12.468 29.4938V29.2126C12.468 28.9537 12.2582 28.7438 11.9993 28.7438Z" fill="black"/>
<path d="M15.0018 23.88C15.2608 23.88 15.4706 23.6701 15.4706 23.4113C15.4706 23.1524 15.2608 22.9425 15.0018 22.9425H14.4884C14.0823 22.9425 13.7518 23.2729 13.7518 23.6791V24.8198C13.7518 25.2259 14.0823 25.5564 14.4884 25.5564H17.7027C18.1089 25.5564 18.4393 25.2259 18.4393 24.8198V23.6791C18.4393 23.2729 18.1089 22.9425 17.7027 22.9425H17.1893C16.9304 22.9425 16.7206 23.1524 16.7206 23.4113C16.7206 23.6701 16.9304 23.88 17.1893 23.88H17.5018V24.6188H14.6893V23.88H15.0018Z" fill="black"/>
<path d="M23.527 26.2438C23.7859 26.2438 23.9957 26.034 23.9957 25.7751V23.4262C23.9957 21.6044 22.873 19.8699 21.2654 19.2083C21.2624 19.207 21.2593 19.2058 21.2563 19.2046L14.9634 16.7675L14.9624 15.5431C16.0361 14.7572 16.7797 13.5474 16.9458 12.1619C18.1652 12.0551 19.0731 11.0829 19.0731 9.94939C19.0731 9.3922 18.8612 8.84763 18.5032 8.43094V6.3573C18.5032 2.8519 15.6513 0 12.1459 0H11.854C8.34859 0 5.49669 2.8519 5.49669 6.35736V8.48844C5.13694 8.90101 4.92687 9.42457 4.92687 9.95539C4.92687 11.0712 5.81813 12.0572 7.05383 12.1625C7.21552 13.523 7.9324 14.7401 9.03391 15.5376V16.7479C8.29865 17.0351 3.34692 18.969 2.74248 19.2051C2.73986 19.2062 2.73723 19.2072 2.73461 19.2083C1.4196 19.7495 0.00427246 21.3003 0.00427246 23.4262V30.7182C0.00427246 31.425 0.579277 32 1.28616 32H22.7139C23.4207 32 23.9957 31.425 23.9957 30.7182V27.9626C23.9957 27.7037 23.7859 27.4938 23.527 27.4938C23.268 27.4938 23.0582 27.7037 23.0582 27.9626V30.7182C23.0582 30.9081 22.9037 31.0625 22.7139 31.0625H20.2327V22.9475C20.2327 22.6886 20.0229 22.4787 19.7639 22.4787C19.505 22.4787 19.2952 22.6886 19.2952 22.9475V31.0625H4.70481V22.9475C4.70481 22.6886 4.495 22.4787 4.23606 22.4787C3.97712 22.4787 3.7673 22.6886 3.7673 22.9475V31.0625H1.28616C1.09628 31.0625 0.94178 30.9081 0.94178 30.7182V23.4262C0.94178 21.6192 2.22373 20.4342 3.0878 20.0767L7.00183 18.5481L9.3656 20.5082C9.78141 20.8533 10.4031 20.7621 10.7039 20.3166L11.2192 19.5535H12.7809L13.2962 20.3166C13.5964 20.7614 14.2181 20.8537 14.6344 20.5083L16.9877 18.5568L20.9131 20.077C21.9798 20.5185 23.0582 21.8094 23.0582 23.4262V25.7751C23.0582 26.034 23.268 26.2438 23.527 26.2438V26.2438ZM18.1356 9.94945C18.1356 10.5903 17.6262 11.1066 16.9823 11.2133V8.84444C17.1028 8.83219 17.2433 8.79607 17.3547 8.74938C17.5002 8.68863 18.1356 9.20332 18.1356 9.94945ZM7.01764 11.2144C6.37264 11.11 5.86438 10.5938 5.86438 9.95539C5.86438 9.50889 6.1287 9.08782 6.50164 8.84251C6.5017 8.84251 6.50176 8.84244 6.50176 8.84244C6.5287 8.82476 6.57307 8.81519 6.61782 8.82326C6.7917 8.85451 6.91295 8.85119 7.01758 8.85119V11.2144H7.01764ZM6.74645 7.91369C6.57401 7.91369 6.4342 7.77387 6.4342 7.60143V6.35736C6.4342 3.36409 8.86072 0.937507 11.8541 0.937507H12.1459C15.1392 0.937507 17.5657 3.36403 17.5657 6.3573V7.82125C17.3781 7.78975 17.1733 7.80881 16.9918 7.88494C16.8213 7.9565 16.5309 7.88481 16.3557 7.80112C15.9611 7.61268 15.6948 7.20931 15.695 6.75924C15.6952 6.50586 15.5223 6.28517 15.2765 6.22367H15.2764H15.2763L15.2632 6.22149C15.0096 6.17924 14.7619 6.30655 14.6376 6.53155C14.166 7.38512 13.2726 7.91375 12.297 7.91375H6.74645V7.91369ZM7.95515 11.5732V8.85119H12.297C13.3484 8.85119 14.3111 8.3935 14.9683 7.66987C15.1958 8.13569 15.5885 8.498 16.0448 8.68957V11.5733C16.0448 13.7633 14.2617 15.5512 12.0686 15.5536C12.0672 15.5536 12.0657 15.5536 12.0644 15.5536C12.0631 15.5536 12.0618 15.5536 12.0605 15.5536C9.50729 15.5512 7.95515 13.544 7.95515 11.5732V11.5732ZM9.94254 19.7688L8.00027 18.1581L9.34622 17.6325L10.6532 18.7162C10.6206 18.7646 9.97129 19.7263 9.94254 19.7688ZM12.7306 18.0093C12.5435 18.1644 12.4288 18.3856 12.4047 18.616H11.5954C11.5717 18.3918 11.46 18.1673 11.2694 18.0093L9.96066 16.924C9.96498 16.8957 9.97148 16.8264 9.97148 16.778V16.0702C11.2222 16.6079 12.6931 16.6561 14.0254 16.0822L14.0259 16.7821C14.0259 16.7827 14.026 16.7833 14.026 16.7839C14.0263 16.8319 14.0301 16.8793 14.0374 16.9256L12.7306 18.0093ZM14.0574 19.7688C14.0288 19.7263 13.3794 18.7646 13.3468 18.7162L14.637 17.6465C15.7245 18.0676 15.4653 17.9673 15.9865 18.1691L14.0574 19.7688Z" fill="black"/>
</svg>
