<svg width="32" height="32" viewBox="0 0 32 32" fill="none" xmlns="http://www.w3.org/2000/svg">
<g clip-path="url(#clip0)">
<path d="M30.3993 13.75C29.8822 13.3161 29.3468 12.8674 29.2455 12.4869C29.1357 12.0773 29.3802 11.3999 29.617 10.7453C29.9592 9.79877 30.313 8.81932 29.8582 8.03416C29.3968 7.23838 28.3622 7.05394 27.3649 6.87727C26.6875 6.75734 25.9855 6.63377 25.6964 6.34338C25.4073 6.05326 25.2819 5.35202 25.1627 4.67437C24.9855 3.67446 24.8024 2.63984 24.0051 2.18107C23.2204 1.72645 22.2405 2.08082 21.2942 2.4225C20.6393 2.65953 19.9624 2.90355 19.5524 2.79371C19.1721 2.69191 18.7232 2.15724 18.2893 1.63941C17.6261 0.850367 16.9428 0.0361938 16.0006 0.0361938C15.0582 0.0361938 14.3751 0.850367 13.714 1.63786C13.2801 2.15491 12.8312 2.69035 12.4509 2.79164C12.0411 2.90096 11.3637 2.65642 10.7091 2.42017C9.76206 2.07797 8.78236 1.72464 7.99823 2.179C7.20245 2.64036 7.01775 3.67498 6.84109 4.67489C6.72115 5.35254 6.59758 6.05429 6.30746 6.34338C6.01707 6.63248 5.31584 6.75785 4.63844 6.87727C3.63827 7.05446 2.60391 7.23734 2.14488 8.03468C1.69026 8.81984 2.04411 9.79928 2.38631 10.7458C2.62334 11.4004 2.86787 12.0778 2.75778 12.4874C2.65572 12.8679 2.12105 13.3166 1.60322 13.7505C0.814434 14.411 0 15.0944 0 16.0365C0 16.9789 0.814434 17.662 1.60167 18.3231C2.11898 18.757 2.65416 19.2059 2.75545 19.5862C2.86528 19.996 2.62075 20.6734 2.38424 21.328C2.04204 22.2746 1.68819 23.2537 2.14281 24.0389C2.60443 24.8347 3.63879 25.0194 4.63896 25.1961C5.31635 25.316 6.01836 25.4396 6.30746 25.7297C6.59655 26.0201 6.72167 26.7213 6.84109 27.3987C7.01827 28.3989 7.20142 29.4332 7.99875 29.8922C8.7834 30.3469 9.7631 29.9925 10.7096 29.6508C11.3648 29.4143 12.0435 29.1703 12.4515 29.2794C12.8317 29.3814 13.2807 29.9161 13.7146 30.4339C14.3756 31.2211 15.0587 32.0356 16.0011 32.0356C16.9433 32.0356 17.6266 31.2211 18.2877 30.4339C18.7216 29.9166 19.1703 29.3814 19.5508 29.2801C19.9593 29.1698 20.6372 29.4148 21.2924 29.6513C22.2389 29.993 23.2183 30.3464 24.0035 29.8928C24.7993 29.4312 24.9837 28.3968 25.1604 27.3992C25.2803 26.7218 25.4039 26.0201 25.6943 25.7307C25.9844 25.4416 26.6856 25.3165 27.3633 25.1971C28.3632 25.0199 29.3978 24.837 29.8566 24.0394C30.3112 23.2543 29.9574 22.2751 29.6154 21.3285C29.3782 20.6739 29.1336 19.9965 29.244 19.587C29.3458 19.2064 29.8807 18.7578 30.3983 18.3236C31.1858 17.6625 31.9999 16.9795 31.9999 16.0371C31.9999 15.0949 31.1868 14.411 30.3993 13.75V13.75ZM29.7172 17.5105C29.0735 18.0498 28.4083 18.6086 28.22 19.3142C28.0249 20.0457 28.3262 20.8819 28.6194 21.6904C28.8668 22.3758 29.1473 23.1519 28.9378 23.5099C28.7256 23.8814 27.9011 24.0252 27.175 24.1537C26.3357 24.3021 25.4676 24.4554 24.941 24.9823C24.4141 25.509 24.2607 26.3765 24.1128 27.2158C23.9843 27.9419 23.839 28.7649 23.4691 28.9786C23.1116 29.1856 22.335 28.905 21.6501 28.6602C20.8416 28.3675 20.0054 28.0647 19.2734 28.2613C18.5698 28.4491 18.0113 29.1146 17.4697 29.7581C16.9883 30.3316 16.4431 30.9782 15.9957 30.9782C15.5486 30.9782 15.003 30.3287 14.522 29.7581C13.9824 29.1146 13.4239 28.4491 12.7183 28.2608C12.5548 28.2186 12.3867 28.1976 12.2178 28.1989C11.5712 28.2473 10.9373 28.4033 10.3421 28.6602C9.65663 28.9076 8.87976 29.1882 8.52228 28.9786C8.15081 28.7664 8.00704 27.9419 7.87882 27.2158C7.73012 26.3765 7.57703 25.5085 7.05013 24.9818C6.52324 24.4549 5.65596 24.3016 4.81666 24.1537C4.0903 24.0252 3.26758 23.8799 3.05361 23.5099C2.84689 23.1519 3.12743 22.3758 3.37456 21.6909C3.66754 20.8819 3.96933 20.0463 3.77349 19.3142C3.58568 18.6106 2.92046 18.0521 2.27699 17.5105C1.70347 17.0292 1.0569 16.4839 1.0569 16.0365C1.0569 15.5894 1.70606 15.0441 2.27699 14.5628C2.92046 14.0232 3.58568 13.4647 3.77401 12.7591C3.96933 12.0276 3.66806 11.1914 3.37456 10.3829C3.12743 9.69748 2.84404 8.92138 3.05361 8.56313C3.26576 8.19192 4.0903 8.04815 4.81666 7.91966C5.65596 7.77097 6.52376 7.61788 7.05065 7.09098C7.57755 6.56409 7.73064 5.69681 7.87882 4.85751C8.00704 4.13115 8.15262 3.30843 8.52228 3.09446C8.87872 2.88774 9.65663 3.16829 10.3415 3.41542C11.1505 3.70788 11.986 4.0107 12.7183 3.81434C13.4216 3.62654 13.9803 2.96131 14.522 2.31785C15.003 1.74433 15.5486 1.09775 15.9957 1.09775C16.4431 1.09775 16.9883 1.74692 17.4697 2.31785C18.009 2.96131 18.5677 3.62654 19.2734 3.81512C20.0054 4.01018 20.8411 3.70891 21.6496 3.41542C22.3345 3.16829 23.1106 2.88489 23.4691 3.09446C23.8406 3.30688 23.9843 4.13115 24.1128 4.85751C24.2613 5.69681 24.4146 6.56461 24.9415 7.0915C25.4681 7.6184 26.3357 7.77175 27.175 7.91966C27.9011 8.04815 28.7241 8.19347 28.9378 8.56313C29.1448 8.92138 28.8642 9.69748 28.6194 10.3824C28.3267 11.1914 28.0249 12.0271 28.2205 12.7591C28.4083 13.4624 29.0735 14.0212 29.7172 14.5628C30.2908 15.0441 30.9373 15.5894 30.9373 16.0365C30.9373 16.4839 30.2908 17.0292 29.7172 17.5105V17.5105Z" fill="black"/>
<path d="M16.0006 4.89557C9.84751 4.89557 4.85962 9.88372 4.85962 16.0365C4.85962 22.1896 9.84751 27.1775 16.0006 27.1775C22.1534 27.1775 27.1415 22.1896 27.1415 16.0365C27.1348 9.88631 22.1508 4.9023 16.0006 4.89557V4.89557ZM16.0006 26.1164C10.4335 26.1164 5.92066 21.6036 5.92066 16.0365C5.92066 10.4697 10.4335 5.95661 16.0006 5.95661C21.5674 5.95661 26.0805 10.4697 26.0805 16.0365C26.0743 21.601 21.5648 26.1105 16.0006 26.1164Z" fill="black"/>
<path d="M10.8506 20.4362L20.4 10.8868L21.1504 11.637L11.6008 21.1866L10.8506 20.4362Z" fill="black"/>
<path d="M19.1839 17.0976C18.0117 17.0976 17.0618 18.0478 17.0618 19.2197C17.0618 20.3919 18.0117 21.3418 19.1839 21.3418C20.3558 21.3418 21.3059 20.3919 21.3059 19.2197C21.3059 18.0478 20.3558 17.0976 19.1839 17.0976ZM19.1839 20.2807C18.5979 20.2807 18.1228 19.8056 18.1228 19.2197C18.1228 18.6337 18.5979 18.1586 19.1839 18.1586C19.7698 18.1586 20.2449 18.6337 20.2449 19.2197C20.2449 19.8056 19.7698 20.2807 19.1839 20.2807Z" fill="black"/>
<path d="M12.8176 14.9754C13.9896 14.9754 14.9397 14.0255 14.9397 12.8533C14.9397 11.6814 13.9896 10.7313 12.8176 10.7313C11.6455 10.7313 10.6956 11.6814 10.6956 12.8533C10.6956 14.0255 11.6455 14.9754 12.8176 14.9754ZM12.8176 11.7923C13.4036 11.7923 13.8787 12.2674 13.8787 12.8533C13.8787 13.4393 13.4036 13.9144 12.8176 13.9144C12.2317 13.9144 11.7566 13.4393 11.7566 12.8533C11.7566 12.2674 12.2317 11.7923 12.8176 11.7923Z" fill="black"/>
</g>
<defs>
<clipPath id="clip0">
<rect width="32" height="32" fill="white"/>
</clipPath>
</defs>
</svg>
