<svg width="32" height="32" viewBox="0 0 32 32" fill="none" xmlns="http://www.w3.org/2000/svg">
<path d="M31.5312 0H0.46875C0.209812 0 0 0.209875 0 0.46875V31.5312C0 31.7901 0.209812 32 0.46875 32H31.5312C31.7902 32 32 31.7901 32 31.5312V0.46875C32 0.209875 31.7902 0 31.5312 0ZM31.0625 31.0625H0.9375V0.9375H31.0625V31.0625Z" fill="black"/>
<path d="M29.6562 1.875H2.34375C2.08481 1.875 1.875 2.08487 1.875 2.34375V5.15625C1.875 5.41513 2.08481 5.625 2.34375 5.625C2.60269 5.625 2.8125 5.41513 2.8125 5.15625V2.8125H29.1875V29.1875H2.8125V7.03125C2.8125 6.77237 2.60269 6.5625 2.34375 6.5625C2.08481 6.5625 1.875 6.77237 1.875 7.03125V29.6562C1.875 29.9151 2.08481 30.125 2.34375 30.125H29.6562C29.9152 30.125 30.125 29.9151 30.125 29.6562V2.34375C30.125 2.08487 29.9152 1.875 29.6562 1.875Z" fill="black"/>
<path d="M16 14.2812H15.0324L15.8426 10.5H19.0937C20.0414 10.5 20.8125 9.729 20.8125 8.78125C20.8125 7.8335 20.0414 7.0625 19.0937 7.0625H14.4531C13.648 7.0625 12.9412 7.63394 12.7725 8.42113L11.2257 15.6399C11.1164 16.1499 11.2417 16.6749 11.5696 17.0806C11.8976 17.4862 12.3847 17.7188 12.9062 17.7188H16C16.7582 17.7188 17.375 18.3356 17.375 19.0938V20.125C17.375 20.8832 16.7582 21.5 16 21.5C15.2418 21.5 14.625 20.8832 14.625 20.125C14.625 19.1773 13.8539 18.4062 12.9062 18.4062C11.9586 18.4062 11.1875 19.1773 11.1875 20.125C11.1875 22.7786 13.3464 24.9375 16 24.9375C18.6536 24.9375 20.8125 22.7786 20.8125 20.125V19.0938C20.8125 16.4401 18.6536 14.2812 16 14.2812ZM19.875 20.125C19.875 22.2617 18.1367 24 16 24C13.8633 24 12.125 22.2617 12.125 20.125C12.125 19.6942 12.4754 19.3438 12.9062 19.3438C13.3371 19.3438 13.6875 19.6942 13.6875 20.125C13.6875 21.4001 14.7249 22.4375 16 22.4375C17.2751 22.4375 18.3125 21.4001 18.3125 20.125V19.0938C18.3125 17.8186 17.2751 16.7812 16 16.7812H12.9062C12.6692 16.7812 12.4477 16.6755 12.2987 16.4912C12.1496 16.3068 12.0927 16.0681 12.1424 15.8363L13.6892 8.61756C13.7659 8.25969 14.0871 8 14.4531 8H19.0937C19.5246 8 19.875 8.35044 19.875 8.78125C19.875 9.21206 19.5246 9.5625 19.0937 9.5625H15.4636C15.2426 9.5625 15.0516 9.71694 15.0052 9.93306L13.9941 14.6518C13.9644 14.7902 13.9989 14.9346 14.088 15.0448C14.177 15.1548 14.3109 15.2188 14.4525 15.2188H16C18.1367 15.2188 19.875 16.9571 19.875 19.0938V20.125Z" fill="black"/>
</svg>
