<svg width="32" height="28" viewBox="0 0 32 28" fill="none" xmlns="http://www.w3.org/2000/svg">
<path d="M29.7321 2.50013C28.2201 1.02368 26.131 0.285767 23.4641 0.285767C22.726 0.285767 21.9728 0.413735 21.2051 0.669547C20.4371 0.925547 19.7227 1.27092 19.0626 1.70543C18.4016 2.13981 17.8335 2.54773 17.357 2.92857C16.881 3.30954 16.4285 3.7144 16 4.14283C15.5713 3.7144 15.1189 3.30954 14.6429 2.92857C14.1665 2.54773 13.5982 2.14006 12.9374 1.70543C12.2767 1.27074 11.5623 0.925609 10.7945 0.669547C10.0268 0.413798 9.27365 0.285767 8.53561 0.285767C5.86885 0.285767 3.7797 1.02387 2.26784 2.50013C0.75599 3.97627 0 6.02377 0 8.64281C0 9.44045 0.140102 10.2622 0.419744 11.107C0.699386 11.9522 1.01806 12.6726 1.37513 13.2677C1.73214 13.8627 2.137 14.443 2.58939 15.0086C3.04178 15.5741 3.3724 15.9638 3.58049 16.1781C3.78877 16.3923 3.95251 16.5473 4.07154 16.6426L15.2142 27.3926C15.4286 27.6069 15.6905 27.7144 15.9999 27.7144C16.3094 27.7144 16.5715 27.6069 16.7857 27.3926L27.9107 16.6779C30.6369 13.9522 31.9999 11.2736 31.9999 8.64256C32 6.02333 31.2441 3.97602 29.7321 2.50013ZM26.3571 14.9996L16 24.9817L5.62523 14.9816C3.39898 12.7559 2.28604 10.6426 2.28604 8.64256C2.28604 7.67842 2.41401 6.82711 2.66983 6.08919C2.92582 5.35115 3.25319 4.76466 3.65198 4.33016C4.05083 3.89553 4.53588 3.54165 5.10729 3.26763C5.67902 2.99387 6.23849 2.8093 6.78602 2.7141C7.33354 2.61903 7.91678 2.57144 8.53592 2.57144C9.15488 2.57144 9.82167 2.72305 10.5359 3.02671C11.2501 3.33024 11.9078 3.71121 12.5089 4.16948C13.1102 4.62806 13.6251 5.05656 14.0538 5.45523C14.4823 5.85427 14.8393 6.2201 15.1251 6.55347C15.3393 6.81547 15.6312 6.94644 16.0001 6.94644C16.3691 6.94644 16.6607 6.81547 16.8751 6.55347C17.1608 6.2201 17.518 5.85408 17.9465 5.45523C18.3751 5.05656 18.89 4.62825 19.491 4.16948C20.0923 3.71121 20.75 3.33024 21.4646 3.02671C22.1786 2.72311 22.8456 2.57144 23.4646 2.57144C24.0836 2.57144 24.6666 2.61903 25.2144 2.7141C25.7621 2.80924 26.3216 2.99387 26.8931 3.26763C27.4646 3.54158 27.9497 3.89572 28.3484 4.33016C28.7472 4.76466 29.0747 5.35115 29.3307 6.08919C29.5862 6.82711 29.7142 7.67842 29.7142 8.64256C29.7141 10.6426 28.5953 12.7618 26.3571 14.9996Z" fill="black"/>
</svg>
