<svg width="32" height="32" viewBox="0 0 32 32" fill="none" xmlns="http://www.w3.org/2000/svg">
<path d="M7.56177 16.0605C7.56177 20.7124 11.3464 24.4971 15.9985 24.4971C20.6504 24.4971 24.4351 20.7124 24.4351 16.0605C24.4351 11.4087 20.6504 7.62402 15.9985 7.62402C11.3464 7.62402 7.56177 11.4087 7.56177 16.0605ZM13.1863 21.9883V21.6851C13.1863 20.1343 14.4478 18.8728 15.9985 18.8728C17.5491 18.8728 18.8105 20.1343 18.8105 21.6851V21.9883C17.9578 22.3945 17.0042 22.6223 15.9985 22.6223C14.9927 22.6223 14.0391 22.3945 13.1863 21.9883V21.9883ZM22.5603 16.0605C22.5603 17.8926 21.8052 19.5515 20.5903 20.7432C20.1531 18.6086 18.2603 16.998 15.9985 16.998C13.7366 16.998 11.8438 18.6084 11.4065 20.7432C10.1917 19.5515 9.43677 17.8926 9.43677 16.0605C9.43677 12.4424 12.3804 9.49878 15.9985 9.49878C19.6167 9.49878 22.5603 12.4424 22.5603 16.0605Z" fill="black"/>
<path d="M18.8105 14.1858C18.8105 12.6353 17.5491 11.3735 15.9985 11.3735C14.4478 11.3735 13.1863 12.6353 13.1863 14.1858C13.1863 15.7363 14.4478 16.998 15.9985 16.998C17.5491 16.998 18.8105 15.7363 18.8105 14.1858ZM15.9985 15.1233C15.4814 15.1233 15.061 14.7026 15.061 14.1858C15.061 13.6689 15.4814 13.2483 15.9985 13.2483C16.5154 13.2483 16.9358 13.6689 16.9358 14.1858C16.9358 14.7026 16.5154 15.1233 15.9985 15.1233Z" fill="black"/>
<path d="M15.9985 0L1.9375 6.07031V11.1565C1.9375 20.1577 7.31177 28.2771 15.6292 31.8418L15.9985 32L16.3677 31.8418C24.6851 28.2771 30.0593 20.1577 30.0593 11.1565V6.07031L15.9985 0ZM28.1846 11.1565C28.1846 19.2729 23.415 26.6079 15.9985 29.9561C8.58203 26.6079 3.81226 19.2729 3.81226 11.1565V7.30298L15.9985 2.04199L28.1846 7.30298V11.1565Z" fill="black"/>
</svg>
