<svg width="32" height="32" viewBox="0 0 32 32" fill="none" xmlns="http://www.w3.org/2000/svg">
<path d="M27.3137 4.6863C24.2917 1.66427 20.2738 0 16 0C11.7262 0 7.70826 1.66427 4.6863 4.6863C1.66427 7.70826 0 11.7262 0 16C0 20.2738 1.66427 24.2917 4.6863 27.3137C7.70826 30.3357 11.7262 32 16 32C20.2738 32 24.2917 30.3357 27.3137 27.3137C30.3357 24.2917 32 20.2738 32 16C32 11.7262 30.3357 7.70826 27.3137 4.6863ZM16 30.9787C7.74066 30.9787 1.02128 24.2593 1.02128 16C1.02128 7.74066 7.74066 1.02128 16 1.02128C24.2593 1.02128 30.9787 7.74066 30.9787 16C30.9787 24.2593 24.2593 30.9787 16 30.9787Z" fill="black"/>
<path d="M26.1891 10.1413C26.427 9.98986 26.4971 9.67422 26.3456 9.43633C24.0769 5.87235 20.2093 3.74469 15.9999 3.74469C11.7905 3.74469 7.92291 5.87242 5.65418 9.43633C5.50269 9.67422 5.57282 9.98986 5.81071 10.1413C5.89568 10.1954 5.99066 10.2212 6.08441 10.2212C6.25319 10.2212 6.41837 10.1376 6.51566 9.98469C8.59593 6.71695 12.1415 4.76597 15.9999 4.76597C19.8584 4.76597 23.4039 6.71688 25.4841 9.98469C25.6356 10.2226 25.9512 10.2928 26.1891 10.1413Z" fill="black"/>
<path d="M24.0529 20.7457C24.3349 20.7457 24.5635 20.517 24.5635 20.235V11.9012C24.5635 10.4118 23.3518 9.20005 21.8624 9.20005C20.5475 9.20005 19.4491 10.1445 19.2097 11.3906H18.8461V8.85105H19.3262C19.6082 8.85105 19.8369 8.62242 19.8369 8.34041C19.8369 8.0584 19.6082 7.82977 19.3262 7.82977H18.3939C18.384 7.82977 18.3744 7.83066 18.3647 7.8312C18.3549 7.83066 18.3453 7.82977 18.3355 7.82977H17.5762C16.8438 7.82977 16.248 8.42559 16.248 9.15798V11.3906H15.752V9.15798C15.752 8.42559 15.1562 7.82977 14.4238 7.82977H13.6646C13.6547 7.82977 13.6451 7.83066 13.6354 7.8312C13.6257 7.83066 13.6161 7.82977 13.6062 7.82977H12.6738C12.3918 7.82977 12.1632 8.0584 12.1632 8.34041C12.1632 8.62242 12.3918 8.85105 12.6738 8.85105H13.154V11.3906H12.7904C12.551 10.1445 11.4525 9.20005 10.1377 9.20005C8.6483 9.20005 7.43652 10.4118 7.43652 11.9012V20.235C7.43652 20.517 7.66515 20.7457 7.94716 20.7457C10.3697 20.7457 12.4092 18.9722 12.7859 16.6277H13.1413C13.2778 17.4893 13.7562 18.2409 14.4592 18.7017L12.7474 22.1588C12.686 22.283 12.6776 22.4268 12.7241 22.5573C12.7708 22.6877 12.8684 22.7937 12.9946 22.8507C13.0461 22.874 14.2758 23.4213 16 23.4213C17.7242 23.4213 18.9539 22.874 19.0054 22.8507C19.1316 22.7937 19.2293 22.6877 19.2758 22.5573C19.3224 22.4268 19.314 22.283 19.2526 22.1588L17.5408 18.7017C18.2438 18.2408 18.7222 17.4893 18.8587 16.6277H19.2141C19.5909 18.9722 21.6304 20.7457 24.0529 20.7457ZM20.1788 16.0656C20.171 15.9895 20.1068 15.6096 19.6131 15.6069L19.567 15.6066C19.5628 15.6065 19.5585 15.6065 19.5541 15.6065H18.3881C18.1061 15.6065 17.8775 15.8351 17.8775 16.1171C17.8775 16.9524 17.3917 17.7141 16.6687 18.0124C16.5379 18.0664 16.4353 18.1722 16.3855 18.3047C16.3357 18.4371 16.343 18.5843 16.4058 18.7111L18.0821 22.0965C17.6233 22.2334 16.8836 22.4 16 22.4C15.1163 22.4 14.3764 22.2333 13.9179 22.0965L15.5942 18.711C15.657 18.5842 15.6643 18.437 15.6145 18.3046C15.5647 18.1722 15.4621 18.0664 15.3313 18.0124C14.6083 17.714 14.1225 16.9524 14.1225 16.117C14.1225 15.835 13.8939 15.6064 13.6118 15.6064H12.4459C12.4415 15.6064 12.4372 15.6065 12.4329 15.6065L12.3869 15.6068C11.8932 15.6095 11.8291 15.9894 11.8212 16.0656C11.8205 16.0726 11.8199 16.0796 11.8195 16.0866C11.7048 17.954 10.2694 19.451 8.4578 19.6908V11.9012C8.4578 10.975 9.21137 10.2213 10.1377 10.2213C11.064 10.2213 11.8175 10.9749 11.8175 11.9012C11.8175 12.1832 12.0462 12.4118 12.3282 12.4118H13.6646C13.9466 12.4118 14.1752 12.1832 14.1752 11.9012V8.85105H14.4238C14.5931 8.85105 14.7308 8.98872 14.7308 9.15798V11.9012C14.7308 12.1832 14.9594 12.4118 15.2414 12.4118H16.7586C17.0406 12.4118 17.2692 12.1832 17.2692 11.9012V9.15798C17.2692 8.98872 17.4069 8.85105 17.5762 8.85105H17.8247V11.9012C17.8247 12.1832 18.0534 12.4118 18.3354 12.4118H19.6718C19.9538 12.4118 20.1825 12.1832 20.1825 11.9012C20.1825 10.975 20.936 10.2213 21.8623 10.2213C22.7886 10.2213 23.5422 10.9749 23.5422 11.9012V19.6908C21.7305 19.4511 20.2952 17.954 20.1805 16.0866C20.1801 16.0796 20.1795 16.0726 20.1788 16.0656Z" fill="black"/>
<path d="M14.1276 26.9844C13.8456 26.9844 13.6169 27.213 13.6169 27.495C13.6169 27.777 13.8456 28.0057 14.1276 28.0057H17.8723C18.1543 28.0057 18.3829 27.777 18.3829 27.495C18.3829 27.213 18.1543 26.9844 17.8723 26.9844H14.1276Z" fill="black"/>
<path d="M20.2553 25.2028C20.2553 24.9208 20.0266 24.6922 19.7446 24.6922H12.2553C11.9733 24.6922 11.7446 24.9208 11.7446 25.2028C11.7446 25.4848 11.9733 25.7135 12.2553 25.7135H19.7446C20.0266 25.7135 20.2553 25.4848 20.2553 25.2028Z" fill="black"/>
<path d="M28.6448 21.5177C28.3909 21.395 28.0856 21.5014 27.9629 21.7553C25.7556 26.3243 21.0597 29.2766 15.9998 29.2766C9.08255 29.2766 3.26686 23.8769 2.75969 16.9838C2.73899 16.7026 2.49443 16.4917 2.21297 16.512C1.93171 16.5327 1.72051 16.7774 1.74114 17.0587C2.0051 20.6463 3.60681 23.9816 6.25123 26.4502C8.90914 28.9314 12.3713 30.2978 15.9998 30.2978C18.7373 30.2978 21.3995 29.5183 23.6987 28.0435C25.9363 26.6083 27.7288 24.5875 28.8825 22.1996C29.0051 21.9456 28.8987 21.6403 28.6448 21.5177Z" fill="black"/>
<path d="M16 1.70215C12.3715 1.70215 8.90939 3.06862 6.25148 5.54977C3.60706 8.01834 2.00536 11.3537 1.74139 14.9413C1.72069 15.2226 1.93196 15.4673 2.21322 15.488C2.49448 15.5084 2.73931 15.2975 2.75994 15.0162C3.26711 8.12305 9.0828 2.72343 16 2.72343C23.3208 2.72343 29.2766 8.67931 29.2766 16C29.2766 17.3375 29.0773 18.6583 28.6841 19.9259C28.6006 20.1953 28.7512 20.4814 29.0206 20.5649C29.071 20.5805 29.1219 20.588 29.172 20.588C29.3898 20.588 29.5916 20.4475 29.6595 20.2285C30.0831 18.8628 30.2979 17.4401 30.2979 16C30.2979 8.11617 23.8839 1.70215 16 1.70215Z" fill="black"/>
</svg>
