<svg width="32" height="32" viewBox="0 0 32 32" fill="none" xmlns="http://www.w3.org/2000/svg">
<path d="M18.6667 1.60004H13.3334C13.039 1.60004 12.8 1.83897 12.8 2.13335C12.8 2.42772 13.039 2.66666 13.3334 2.66666H18.6667C18.961 2.66666 19.2 2.42772 19.2 2.13335C19.2 1.83897 18.961 1.60004 18.6667 1.60004Z" fill="black"/>
<path d="M22.4001 1.60004H21.8668C21.5724 1.60004 21.3335 1.83897 21.3335 2.13335C21.3335 2.42772 21.5724 2.66666 21.8668 2.66666H22.4001C22.6945 2.66666 22.9334 2.42772 22.9334 2.13335C22.9334 1.83897 22.6945 1.60004 22.4001 1.60004Z" fill="black"/>
<path d="M16.6624 27.2001H15.3381C14.5269 27.2001 13.8667 27.8603 13.8667 28.6715V28.9291C13.8667 29.7403 14.5269 30.4001 15.3376 30.4001H16.6619C17.4731 30.4001 18.1333 29.7403 18.1333 28.9291V28.6715C18.1333 27.8603 17.4731 27.2001 16.6624 27.2001ZM17.0667 28.9291C17.0667 29.1521 16.8854 29.3334 16.6624 29.3334H15.3381C15.1147 29.3334 14.9333 29.1521 14.9333 28.9291V28.6715C14.9333 28.4481 15.1146 28.2667 15.3381 28.2667H16.6619C16.8854 28.2667 17.0667 28.448 17.0667 28.6715V28.9291V28.9291Z" fill="black"/>
<path d="M23.139 0H8.86111C7.79817 0 6.93311 0.865062 6.93311 1.928V30.072C6.93311 31.1349 7.79817 32 8.86111 32H23.1384C24.2014 32 25.0664 31.1349 25.0664 30.0726V1.928C25.0665 0.865062 24.2014 0 23.139 0ZM23.9998 30.072C23.9998 30.5467 23.6137 30.9333 23.139 30.9333H8.86111C8.38592 30.9333 7.99979 30.5466 7.99979 30.0725V1.928C7.99979 1.45331 8.38592 1.06669 8.86111 1.06669H23.1384C23.6136 1.06669 23.9997 1.45337 23.9997 1.928V30.072H23.9998Z" fill="black"/>
<path d="M24.5333 3.20001H7.46666C7.17229 3.20001 6.93335 3.43895 6.93335 3.73332V26.1333C6.93335 26.4277 7.17229 26.6666 7.46666 26.6666H24.5333C24.8277 26.6666 25.0667 26.4277 25.0667 26.1333V3.73332C25.0667 3.43895 24.8277 3.20001 24.5333 3.20001ZM24 25.6H7.99997V4.2667H24V25.6Z" fill="black"/>
</svg>
