<svg width="32" height="32" viewBox="0 0 32 32" fill="none" xmlns="http://www.w3.org/2000/svg">
<path d="M32 17.503C32 16.1395 30.8907 15.0302 29.5273 15.0302H21.4506C20.9888 15.0302 20.5561 14.8254 20.2633 14.4683C19.9705 14.1112 19.8546 13.6467 19.9451 13.1938L20.2537 11.651C20.4017 10.9107 20.4768 10.1525 20.4768 9.39743V7.48281C20.4768 5.56681 18.9181 4.008 17.002 4.008C16.191 4.008 15.5312 4.66781 15.5312 5.47875V9.53718C15.5312 10.3487 15.2152 11.1117 14.6414 11.6856L12.1867 14.1403C11.6128 14.7142 10.8498 15.0302 10.0382 15.0302H7.87456C7.67837 14.4484 7.12794 14.0282 6.48081 14.0282H1.47075C0.659812 14.0282 0 14.688 0 15.499V30.5292C0 31.3402 0.659812 32 1.47075 32H6.48081C7.12794 32 7.67831 31.5797 7.87456 30.998H12.1059C12.9968 30.998 13.8915 31.0866 14.7651 31.2613L17.051 31.7184C17.985 31.9052 18.9416 31.9999 19.8941 31.9999H26.5212C27.8847 31.9999 28.9939 30.8906 28.9939 29.5272C28.9939 28.8819 28.7453 28.2938 28.3389 27.853C29.3027 27.5151 29.9959 26.5968 29.9959 25.5191C29.9959 24.8738 29.7472 24.2857 29.3409 23.8449C30.3047 23.5071 30.9979 22.5887 30.9979 21.5111C30.9979 20.8657 30.7492 20.2777 30.3429 19.8369C31.3067 19.499 32 18.5807 32 17.503ZM29.5273 19.0383H24.5172C24.2583 19.0383 24.0484 19.2482 24.0484 19.5071C24.0484 19.7659 24.2583 19.9758 24.5172 19.9758H28.5252C29.3718 19.9758 30.0605 20.6646 30.0605 21.5111C30.0605 22.3576 29.3717 23.0463 28.5252 23.0463H23.5151C23.2563 23.0463 23.0464 23.2562 23.0464 23.5151C23.0464 23.7739 23.2563 23.9838 23.5151 23.9838H27.5232C28.3698 23.9838 29.0584 24.6726 29.0584 25.5191C29.0584 26.3657 28.3697 27.0544 27.5232 27.0544H22.5131C22.2542 27.0544 22.0443 27.2642 22.0443 27.5231C22.0443 27.782 22.2542 27.9919 22.5131 27.9919H26.5211C27.3677 27.9919 28.0564 28.6806 28.0564 29.5271C28.0564 30.3736 27.3677 31.0625 26.5212 31.0625H19.8941C19.0032 31.0625 18.1085 30.9739 17.2349 30.7992L14.949 30.3421C14.015 30.1552 13.0584 30.0606 12.1059 30.0606H7.95156V18.505C7.95156 18.2461 7.74169 18.0362 7.48281 18.0362C7.22394 18.0362 7.01406 18.2461 7.01406 18.505V30.5292C7.01406 30.8233 6.77481 31.0625 6.48081 31.0625H1.47075C1.17669 31.0625 0.9375 30.8232 0.9375 30.5292V15.499C0.9375 15.2049 1.17675 14.9657 1.47075 14.9657H6.48081C6.77488 14.9657 7.01406 15.205 7.01406 15.499V16.5012C7.01406 16.7601 7.22394 16.9699 7.48281 16.9699C7.74169 16.9699 7.95156 16.7601 7.95156 16.5012V15.9677H10.0382C11.1002 15.9677 12.0986 15.5542 12.8496 14.8032L15.3042 12.3486C16.0552 11.5976 16.4688 10.5992 16.4688 9.53725V5.47881C16.4688 5.18475 16.708 4.94556 17.002 4.94556C18.4011 4.94556 19.5393 6.08375 19.5393 7.48287V9.3975C19.5393 10.091 19.4704 10.7873 19.3344 11.4672L19.0258 13.01C18.88 13.7393 19.0668 14.4875 19.5383 15.0627C20.0098 15.6379 20.7068 15.9677 21.4506 15.9677H29.5273C30.3738 15.9677 31.0625 16.6565 31.0625 17.503C31.0625 18.3495 30.3738 19.0383 29.5273 19.0383Z" fill="black"/>
<path d="M3.97575 26.5535C3.16475 26.5535 2.505 27.2133 2.505 28.0242C2.505 28.8352 3.16482 29.495 3.97575 29.495C4.78669 29.495 5.4465 28.8352 5.4465 28.0242C5.4465 27.2133 4.78669 26.5535 3.97575 26.5535ZM3.97575 28.5575C3.68169 28.5575 3.4425 28.3182 3.4425 28.0242C3.4425 27.7302 3.68175 27.491 3.97575 27.491C4.26975 27.491 4.509 27.7302 4.509 28.0242C4.509 28.3182 4.26975 28.5575 3.97575 28.5575Z" fill="black"/>
<path d="M17.5029 2.9415C17.7618 2.9415 17.9717 2.73162 17.9717 2.47275V0.46875C17.9717 0.209875 17.7618 0 17.5029 0C17.2441 0 17.0342 0.209875 17.0342 0.46875V2.47275C17.0342 2.73169 17.2441 2.9415 17.5029 2.9415Z" fill="black"/>
<path d="M14.6666 3.30526C14.7581 3.39676 14.8781 3.44257 14.9981 3.44257C15.118 3.44257 15.238 3.39682 15.3295 3.30526C15.5126 3.1222 15.5126 2.82539 15.3295 2.64239L14.8285 2.14139C14.6454 1.95832 14.3486 1.95832 14.1656 2.14139C13.9826 2.32445 13.9826 2.62126 14.1656 2.80426L14.6666 3.30526Z" fill="black"/>
<path d="M20.0082 3.44257C20.1281 3.44257 20.2481 3.39682 20.3396 3.30526L20.8406 2.80426C21.0237 2.6212 21.0237 2.32439 20.8406 2.14139C20.6575 1.95832 20.3607 1.95832 20.1777 2.14139L19.6767 2.64239C19.4937 2.82545 19.4937 3.12226 19.6767 3.30526C19.7682 3.39676 19.8882 3.44257 20.0082 3.44257Z" fill="black"/>
</svg>
